<svg xmlns="http://www.w3.org/2000/svg" viewBox="0 0 132.6 101.6"><title>Asset 29</title><g id="Layer_2" data-name="Layer 2"><g id="Layer_1-2" data-name="Layer 1"><path d="M9.4,1.4,55.7,53.1a14.06,14.06,0,0,0,20.8,0L122,2.3a6.42,6.42,0,0,1,1.3-1A16.49,16.49,0,0,0,117,0H15.2a15,15,0,0,0-6,1.2C9.2,1.3,9.3,1.3,9.4,1.4Z" fill="#333"/><path d="M130.2,8.1a6,6,0,0,1-.9,1.5L84,60.3a24,24,0,0,1-17.7,7.9,23.63,23.63,0,0,1-17.7-7.9L2.5,8.7c-.1-.1-.2-.2-.2-.3a15.29,15.29,0,0,0-2.3,8V86.2a15.54,15.54,0,0,0,15.7,15.4H116.9a15.6,15.6,0,0,0,15.7-15.4V16.4a15.51,15.51,0,0,0-2.4-8.3" fill="#333"/></g></g></svg>