<?xml version="1.0" encoding="UTF-8"?>
<svg version="1.1" xmlns="http://www.w3.org/2000/svg" width="480" height="480">
<path d="M0 0 C8.84138343 7.63306503 16.3880345 15.74421983 23.6875 24.875 C24.33460938 25.64328125 24.98171875 26.4115625 25.6484375 27.203125 C58.15396767 66.2097612 74.43844998 120.03607253 70.20703125 170.53125 C67.59451284 197.14928943 61.56900374 221.87541391 49.6875 245.875 C49.16671875 247.00035156 48.6459375 248.12570312 48.109375 249.28515625 C39.94189924 266.55183438 28.35364513 283.48898083 14.6875 296.875 C13.48203219 298.12274081 12.27913876 299.37297136 11.078125 300.625 C1.60551582 310.39783395 -8.17734605 319.04676724 -19.3125 326.875 C-19.88468262 327.28121582 -20.45686523 327.68743164 -21.04638672 328.10595703 C-42.54474643 343.17981438 -66.89263536 353.64661595 -92.3125 359.875 C-93.06611816 360.06191406 -93.81973633 360.24882812 -94.59619141 360.44140625 C-129.32983602 368.88315034 -166.87424819 368.50684872 -201.3125 358.875 C-202.04855469 358.67036133 -202.78460938 358.46572266 -203.54296875 358.25488281 C-215.00401246 355.00045232 -225.90360494 350.72633205 -236.80078125 345.92578125 C-237.98921631 345.40878662 -237.98921631 345.40878662 -239.20166016 344.88134766 C-241.3125 343.875 -241.3125 343.875 -244.16796875 341.91796875 C-249.47783626 340.15680772 -254.10793396 342.26390313 -259.3125 343.875 C-260.4876416 344.2167627 -261.6627832 344.55852539 -262.87353516 344.91064453 C-266.79961847 346.05837929 -270.71309079 347.24261834 -274.625 348.4375 C-275.33936218 348.65464661 -276.05372437 348.87179321 -276.78973389 349.09552002 C-288.28930726 352.59232712 -299.73357719 356.24160516 -311.16259766 359.96289062 C-322.24185943 363.56248575 -333.36514316 367.0141721 -344.5 370.4375 C-345.36377258 370.70342957 -346.22754517 370.96935913 -347.11749268 371.24334717 C-349.57136986 371.99833666 -352.02578107 372.75155656 -354.48046875 373.50390625 C-355.21443375 373.72946701 -355.94839874 373.95502777 -356.7046051 374.18742371 C-359.89045757 375.16088843 -363.06712437 376.119127 -366.3125 376.875 C-367.49159617 373.45945282 -367.15222154 371.7019476 -365.81640625 368.3828125 C-363.79014844 363.13623659 -361.87939338 357.86458913 -360.02734375 352.5546875 C-359.72784821 351.69921829 -359.42835266 350.84374908 -359.11978149 349.96235657 C-358.16180628 347.22538511 -357.20567138 344.48777669 -356.25 341.75 C-355.9202417 340.80591278 -355.5904834 339.86182556 -355.25073242 338.88912964 C-350.37861621 324.92976332 -345.61398867 310.93919338 -340.97900391 296.89941406 C-338.17608164 288.41517482 -335.29365668 279.96440429 -332.24023438 271.56665039 C-331.15341093 268.53621532 -330.3125 266.12151973 -330.3125 262.875 C-331.06360494 261.34333502 -331.88985768 259.84819769 -332.75 258.375 C-359.58138727 210.14163558 -367.43871212 153.20202796 -352.4375 99.8125 C-348.06845569 85.1281146 -342.53629166 71.38514472 -335.3125 57.875 C-334.99023438 57.26914063 -334.66796875 56.66328125 -334.3359375 56.0390625 C-322.84480734 34.64500717 -307.02146372 14.41468571 -288.3125 -1.125 C-287.42949219 -1.9190625 -286.54648437 -2.713125 -285.63671875 -3.53125 C-259.13074708 -27.17979727 -225.68764262 -42.20967111 -191.3125 -50.125 C-190.41273438 -50.33672852 -189.51296875 -50.54845703 -188.5859375 -50.76660156 C-121.44803424 -65.85350219 -51.42404398 -43.83271157 0 0 Z M-216.3125 -5.125 C-217.80625394 -4.43113834 -219.30261656 -3.74287978 -220.80078125 -3.05859375 C-232.86304601 2.47549341 -243.85070272 8.65935262 -254.3125 16.875 C-255.09238281 17.48085937 -255.87226563 18.08671875 -256.67578125 18.7109375 C-265.63182074 25.75876951 -274.05223111 33.06693752 -281.3125 41.875 C-282.03308594 42.7309375 -282.75367188 43.586875 -283.49609375 44.46875 C-295.81979935 57.80559416 -295.81979935 57.80559416 -302.3125 73.875 C-302.9725 73.875 -303.6325 73.875 -304.3125 73.875 C-311.54459889 90.59693423 -318.31576696 106.82992409 -321.3125 124.875 C-321.56580078 126.32326172 -321.56580078 126.32326172 -321.82421875 127.80078125 C-322.83327324 134.15378831 -323.43975147 140.23220239 -323.4453125 146.671875 C-323.44626923 147.38676086 -323.44722595 148.10164673 -323.44821167 148.8381958 C-323.4488872 150.34069914 -323.44707705 151.84320552 -323.44287109 153.34570312 C-323.43754586 155.60553806 -323.44282115 157.86517138 -323.44921875 160.125 C-323.45793819 172.45250809 -322.90252045 184.10462297 -319.625 196.0625 C-319.21918701 197.55994751 -319.21918701 197.55994751 -318.80517578 199.08764648 C-317.99509758 202.02317974 -317.16085286 204.95032027 -316.3125 207.875 C-315.97822998 209.03854004 -315.97822998 209.03854004 -315.63720703 210.22558594 C-311.02456141 225.82393881 -303.11899758 240.63857441 -293.375 253.625 C-290.28862523 258.06325793 -290.28862523 258.06325793 -290.390625 261.53125 C-291.13718953 264.16805237 -292.12077626 266.40832102 -293.3125 268.875 C-295.65948553 274.95921284 -297.79116445 281.10661328 -299.88671875 287.28125 C-300.21541458 288.2465564 -300.54411041 289.21186279 -300.88276672 290.2064209 C-301.92300146 293.26222169 -302.96152739 296.31859998 -304 299.375 C-304.70887116 301.45837186 -305.41785441 303.54170558 -306.12695312 305.625 C-307.85676524 310.70789304 -309.58517818 315.79126017 -311.3125 320.875 C-307.89771041 321.84336649 -306.13965245 321.76419127 -302.75 320.625 C-298.24789281 319.16629075 -293.72998915 317.90290489 -289.1484375 316.71875 C-286.34354512 315.88423656 -283.64659789 314.86170987 -280.91357422 313.8203125 C-275.44966836 311.83455659 -269.90650231 310.08150672 -264.36669922 308.32128906 C-262.90856425 307.85539158 -261.45217666 307.38399101 -259.99755859 306.90722656 C-257.87464025 306.21182891 -255.74682418 305.53387564 -253.6171875 304.859375 C-252.65134232 304.53764313 -252.65134232 304.53764313 -251.66598511 304.20941162 C-247.51637698 302.9220924 -244.50373548 302.70568177 -240.3125 303.875 C-238.52050781 304.91259766 -238.52050781 304.91259766 -237.015625 306.1640625 C-232.98513268 309.2388028 -228.69148483 311.22391221 -224.0625 313.25 C-222.74378906 313.82862793 -222.74378906 313.82862793 -221.3984375 314.41894531 C-218.70907057 315.58542932 -216.01192234 316.73201039 -213.3125 317.875 C-212.54357422 318.20854492 -211.77464844 318.54208984 -210.98242188 318.88574219 C-169.95907404 336.46975868 -120.22102877 334.83347908 -79.00732422 318.98876953 C-55.66281607 309.596272 -35.37318614 296.34395426 -17.3125 278.875 C-16.42820312 278.03066406 -15.54390625 277.18632812 -14.6328125 276.31640625 C-9.02306932 270.85159565 -4.06243753 265.09515629 0.6875 258.875 C1.22117187 258.20855469 1.75484375 257.54210937 2.3046875 256.85546875 C6.47518172 251.55051367 9.59835371 245.86068394 12.6875 239.875 C13.14793701 239.00875 13.14793701 239.00875 13.61767578 238.125 C34.94489905 197.99964123 41.04156757 150.69444884 27.6875 106.875 C27.47754395 106.16472656 27.26758789 105.45445312 27.05126953 104.72265625 C23.70117308 93.4924128 19.32321446 83.1449192 13.6875 72.875 C12.94886719 71.52535156 12.94886719 71.52535156 12.1953125 70.1484375 C5.96651135 59.34481065 -1.47667842 49.39744094 -10.015625 40.328125 C-12.01568914 38.19200208 -13.88646162 36.00399403 -15.75 33.75 C-20.04701362 28.80742565 -25.18341709 24.91309014 -30.3125 20.875 C-31.58867188 19.83472656 -31.58867188 19.83472656 -32.890625 18.7734375 C-43.42850058 10.19070236 -54.06643672 3.67275085 -66.3125 -2.125 C-67.56740234 -2.72828125 -67.56740234 -2.72828125 -68.84765625 -3.34375 C-74.35393462 -5.89619306 -80.05923607 -7.87844158 -85.78515625 -9.87890625 C-87.58210033 -10.51370709 -89.37918123 -11.15212035 -91.14453125 -11.87011719 C-96.71122039 -14.11319873 -102.2849891 -15.23512536 -108.1875 -16.25 C-109.11691406 -16.41886719 -110.04632813 -16.58773437 -111.00390625 -16.76171875 C-145.07446291 -22.79653144 -185.05013162 -21.03041549 -216.3125 -5.125 Z " fill="#F4F4F4" transform="translate(383.3125,70.125)"/>
<path d="M0 0 C1.11955078 0.02803711 1.11955078 0.02803711 2.26171875 0.05664062 C5.74440883 0.23231614 8.09993244 0.60269445 11.21875 2.23828125 C18.08985561 9.99180625 21.2514183 21.13379426 25.1875 30.625 C25.77377513 32.03072971 26.36036179 33.43632954 26.94726562 34.84179688 C28.47135263 38.49602903 29.99160085 42.15175558 31.5 45.8125 C31.89550049 46.70541748 32.29100098 47.59833496 32.69848633 48.51831055 C34.16323476 52.71089081 32.86400895 56.72047314 31.5 60.8125 C30.84 60.8125 30.18 60.8125 29.5 60.8125 C29.38785156 61.6478125 29.38785156 61.6478125 29.2734375 62.5 C28.21913994 65.65224322 26.3961333 67.40171772 24.125 69.8125 C22.57355585 71.47006899 21.03121327 73.13622442 19.5 74.8125 C18.88898438 75.451875 18.27796875 76.09125 17.6484375 76.75 C15.96109887 79.78032244 16.56675343 81.53363817 17.5 84.8125 C21.58897853 92.92960917 27.6100213 99.95580737 33.5 106.8125 C34.21027344 107.658125 34.92054688 108.50375 35.65234375 109.375 C47.78976628 123.42192661 62.90317864 133.35414958 79.5 141.375 C80.18151123 141.70967285 80.86302246 142.0443457 81.56518555 142.38916016 C86.23894352 144.55893558 90.33454814 145.56941991 95.5 145.8125 C97.69816226 144.17796909 98.83434903 142.91987056 100.5 140.8125 C102.01746368 139.16355932 103.53861893 137.51801183 105.0625 135.875 C107.57488359 133.08299896 109.93038682 130.36417161 111.9375 127.1875 C112.7109375 126.011875 112.7109375 126.011875 113.5 124.8125 C114.16 124.8125 114.82 124.8125 115.5 124.8125 C115.83 123.8225 116.16 122.8325 116.5 121.8125 C119.79679718 119.61463522 121.1606652 119.54484392 124.984375 120.14404297 C130.60456244 121.63745069 135.77944463 124.35901757 141 126.875 C142.25217697 127.4693164 143.50470201 128.06289997 144.75756836 128.65576172 C148.34610686 130.35886222 151.92352052 132.08422301 155.5 133.8125 C156.8924292 134.47983154 156.8924292 134.47983154 158.31298828 135.16064453 C160.56772471 136.24325647 162.81694103 137.33600161 165.0625 138.4375 C165.6915625 138.74308838 166.320625 139.04867676 166.96875 139.36352539 C172.82245764 142.29618646 172.82245764 142.29618646 174.5 144.8125 C176.02017866 154.974415 174.45951817 166.05466706 168.58203125 174.6015625 C156.84300222 188.35596466 141.56838597 195.14541149 123.81347656 196.69677734 C94.04169816 198.18599463 53.93358697 176.80058614 31.5 158.8125 C30.49710937 158.01457031 29.49421875 157.21664062 28.4609375 156.39453125 C14.73783675 145.24947586 2.19221481 132.64169824 -8.31201172 118.41503906 C-9.46158307 116.8643226 -10.6385898 115.33406131 -11.81640625 113.8046875 C-14.09057575 110.83837945 -16.30769503 107.83978721 -18.5 104.8125 C-18.9007373 104.26045898 -19.30147461 103.70841797 -19.71435547 103.13964844 C-33.39154013 84.09519686 -43.39629831 63.49689712 -40.03125 39.46484375 C-37.18055081 25.22831623 -29.8347212 11.63272946 -17.75 3.1875 C-12.02310211 -0.4819568 -6.56955969 -0.3347185 0 0 Z " fill="#F6F6F6" transform="translate(173.5,129.1875)"/>
</svg>
